<?xml version="1.0" encoding="UTF-8"?>
<svg id="Layer_1" data-name="Layer 1" xmlns="http://www.w3.org/2000/svg" viewBox="0 0 1080 1080">
  <defs>
    <style>
      .cls-1 {
        fill: #e2353a;
      }

      .cls-2 {
        fill: #191919;
      }
    </style>
  </defs>
  <g>
    <path class="cls-2" d="M84.2,730.74h64.39c15.39,0,28.99,2.93,40.8,8.8,11.81,5.88,20.99,14.15,27.54,24.81,6.55,10.67,9.82,23.08,9.82,37.26s-3.27,26.6-9.82,37.26c-6.55,10.66-15.72,18.93-27.54,24.8-11.81,5.87-25.41,8.81-40.8,8.81H84.2v-141.73Zm62.77,114.8c14.17,0,25.48-3.95,33.92-11.85,8.44-7.89,12.66-18.59,12.66-32.09s-4.22-24.19-12.66-32.09c-8.44-7.89-19.74-11.84-33.92-11.84h-29.97v87.88h29.97Z"/>
    <path class="cls-2" d="M383.07,730.74l-61.35,141.73h-32.39l-61.15-141.73h35.43l43.13,101.24,43.73-101.24h32.6Z"/>
    <path class="cls-2" d="M612.07,730.74l-46.37,141.73h-35.23l-31.18-95.98-32.2,95.98h-35.03l-46.57-141.73h34.02l31.99,99.62,33.41-99.62h30.38l32.39,100.43,33.01-100.43h31.38Z"/>
    <path class="cls-2" d="M723.43,757.06v37.46h65.61v26.32h-65.61v51.63h-32.8v-141.73h107.11v26.32h-74.31Z"/>
    <path class="cls-2" d="M820.01,730.74h32.8v141.73h-32.8v-141.73Z"/>
    <path class="cls-2" d="M915.78,757.46h-45.36v-26.72h123.51v26.72h-45.36v115.01h-32.8v-115.01Z"/>
  </g>
  <g>
    <path class="cls-2" d="M128.1,968.36h-26.23l-5.01,12.1h-13.39l25.17-56.49h12.91l25.26,56.49h-13.72l-5-12.1Zm-4.12-9.92l-8.95-21.63-8.96,21.63h17.91Z"/>
    <path class="cls-2" d="M235.95,977.69c-4.65-2.5-8.31-5.97-10.97-10.41-2.67-4.44-4-9.46-4-15.05s1.33-10.61,4-15.05c2.67-4.44,6.32-7.91,10.97-10.41,4.66-2.5,9.89-3.75,15.69-3.75,4.9,0,9.32,.86,13.28,2.58,3.96,1.72,7.28,4.2,9.97,7.43l-8.39,7.74c-3.82-4.41-8.56-6.62-14.21-6.62-3.5,0-6.62,.77-9.36,2.3-2.74,1.53-4.88,3.67-6.41,6.41-1.53,2.74-2.3,5.87-2.3,9.36s.77,6.62,2.3,9.36c1.53,2.74,3.67,4.88,6.41,6.42,2.74,1.53,5.87,2.3,9.36,2.3,5.65,0,10.38-2.23,14.21-6.7l8.39,7.74c-2.69,3.28-6.03,5.79-10.01,7.51-3.98,1.72-8.42,2.58-13.31,2.58-5.76,0-10.96-1.25-15.62-3.75Z"/>
    <path class="cls-2" d="M392.39,968.36h-26.23l-5.01,12.1h-13.39l25.17-56.49h12.91l25.26,56.49h-13.72l-5-12.1Zm-4.12-9.92l-8.95-21.63-8.96,21.63h17.91Z"/>
    <path class="cls-2" d="M489.62,923.98h25.66c6.13,0,11.55,1.17,16.26,3.51,4.71,2.34,8.37,5.64,10.98,9.89s3.91,9.2,3.91,14.85-1.3,10.6-3.91,14.85c-2.61,4.25-6.27,7.55-10.98,9.89-4.71,2.34-10.13,3.51-16.26,3.51h-25.66v-56.49Zm25.02,45.75c5.65,0,10.15-1.57,13.51-4.72,3.36-3.14,5.05-7.41,5.05-12.79s-1.68-9.64-5.05-12.79c-3.36-3.14-7.87-4.72-13.51-4.72h-11.94v35.02h11.94Z"/>
    <path class="cls-2" d="M672.65,969.98v10.49h-43.74v-56.49h42.69v10.49h-29.7v12.27h26.22v10.17h-26.22v13.07h30.74Z"/>
    <path class="cls-2" d="M807.08,980.47l-.08-33.89-16.62,27.92h-5.89l-16.54-27.2v33.17h-12.27v-56.49h10.82l21.14,35.1,20.82-35.1h10.73l.16,56.49h-12.27Z"/>
    <path class="cls-2" d="M932.48,960.46v20.01h-13.07v-20.17l-21.87-36.31h13.88l15.09,25.1,15.09-25.1h12.83l-21.95,36.47Z"/>
  </g>
  <g>
    <path class="cls-2" d="M798.73,403.03l-28.53,81.56h-190.01l-38.03,114.01h-130.64l47.81-135.68h58.43c42.95,0,82.1-23.4,102.84-59.89h178.14Z"/>
    <polygon class="cls-2" points="996.52 251.78 967.23 333.34 647.45 333.34 676.71 251.78 996.52 251.78"/>
    <path class="cls-1" d="M281.66,216.48h129.86l-53.05,148.13h131.05l60.63-166.92c1.7-4.69-1.77-9.65-6.76-9.65H107.39l32.93-89.48h494.49c39.33,0,66.77,39,53.49,76.02l-73.53,204.92c-14.69,40.94-53.51,68.25-97.01,68.25H196.54l85.12-231.27Z"/>
  </g>
</svg>